<svg width="253" height="49" viewBox="0 0 253 49" fill="none" xmlns="http://www.w3.org/2000/svg">
<path d="M182.3 0H10C4.47715 0 0 4.47715 0 10V38.0749C0 43.5978 4.47715 48.0749 10 48.0749H187.972C190.362 48.0749 192.3 46.1373 192.3 43.7472V42.3359C192.3 41.2814 192.985 40.3495 193.992 40.0356C195.543 39.552 197.119 40.7111 197.119 42.3359V44.2542C197.119 46.3643 198.829 48.0749 200.939 48.0749H237.197C242.72 48.0749 247.197 43.5978 247.197 38.0749V10C247.197 4.47715 242.72 0 237.197 0H207.119C201.596 0 197.119 4.47715 197.119 10V30.2773C197.119 31.3317 196.433 32.2637 195.426 32.5776C193.875 33.0612 192.3 31.9021 192.3 30.2773V10C192.3 4.47715 187.823 0 182.3 0Z" fill="white"/>
</svg>
