<svg width="624" height="816" viewBox="0 0 624 816" fill="none" xmlns="http://www.w3.org/2000/svg">
<path d="M16.908 1H294.64C303.424 1.00005 310.547 8.1057 310.547 16.8662V165.282C310.565 171.153 310.364 177.182 312.225 182.997L312.412 183.56C315.242 191.792 318.53 197.246 323.648 200.615C328.755 203.978 335.594 205.203 345.375 205.203C385.93 205.226 426.476 205.238 467.025 205.238H606.558C615.36 205.238 622.515 212 622.515 220.733V390.73H622.51V391.263C622.51 400.013 615.385 407.114 606.601 407.114H467.059C446.782 407.114 426.507 407.117 406.231 407.123L345.399 407.149C335.617 407.149 328.779 408.372 323.671 411.73C318.552 415.096 315.264 420.546 312.434 428.77C310.63 434.004 310.57 439.424 310.571 444.751V447.03C310.571 459.006 310.543 524.788 310.547 536.77V572.607C310.566 578.666 310.351 584.896 312.412 590.884C315.242 599.116 318.53 604.571 323.648 607.94C328.755 611.303 335.594 612.527 345.375 612.527C385.93 612.549 426.476 612.563 467.025 612.563H606.558C615.342 612.563 622.466 619.669 622.466 628.43V628.963H622.47V799.133C622.47 807.895 615.346 815 606.562 815H328.72C319.935 815 312.812 807.895 312.811 799.133V692.808L312.803 655.355C312.787 641.692 308.499 630.505 300.725 622.734C292.951 614.962 281.743 610.657 267.995 610.651C229.36 610.611 190.72 610.602 152.082 610.602H16.908C8.26136 610.602 1.22314 603.716 1.00534 595.144L1.00012 594.736V424.924C1.00012 416.172 8.12484 409.073 16.91 409.073H152.091C190.734 409.073 229.377 409.063 268.014 409.024L268.013 409.023C281.763 409.016 292.971 404.717 300.745 396.953C308.521 389.19 312.808 378.015 312.824 364.366C312.833 351.894 312.834 339.417 312.834 326.951V326.813C312.834 301.905 312.793 272.929 312.803 248.031C312.787 234.368 308.499 223.183 300.725 215.41C292.951 207.639 281.743 203.333 267.995 203.326C229.36 203.286 190.72 203.278 152.082 203.278H16.908C8.12422 203.277 1.00025 196.171 1.00012 187.411V16.8662C1.00036 8.10579 8.12429 1.00022 16.908 1Z" fill="url(#paint0_radial_2856_1892)" fill-opacity="0.2" style="mix-blend-mode:plus-lighter"/>
<path d="M16.908 1H294.64C303.424 1.00005 310.547 8.1057 310.547 16.8662V165.282C310.565 171.153 310.364 177.182 312.225 182.997L312.412 183.56C315.242 191.792 318.53 197.246 323.648 200.615C328.755 203.978 335.594 205.203 345.375 205.203C385.93 205.226 426.476 205.238 467.025 205.238H606.558C615.36 205.238 622.515 212 622.515 220.733V390.73H622.51V391.263C622.51 400.013 615.385 407.114 606.601 407.114H467.059C446.782 407.114 426.507 407.117 406.231 407.123L345.399 407.149C335.617 407.149 328.779 408.372 323.671 411.73C318.552 415.096 315.264 420.546 312.434 428.77C310.63 434.004 310.57 439.424 310.571 444.751V447.03C310.571 459.006 310.543 524.788 310.547 536.77V572.607C310.566 578.666 310.351 584.896 312.412 590.884C315.242 599.116 318.53 604.571 323.648 607.94C328.755 611.303 335.594 612.527 345.375 612.527C385.93 612.549 426.476 612.563 467.025 612.563H606.558C615.342 612.563 622.466 619.669 622.466 628.43V628.963H622.47V799.133C622.47 807.895 615.346 815 606.562 815H328.72C319.935 815 312.812 807.895 312.811 799.133V692.808L312.803 655.355C312.787 641.692 308.499 630.505 300.725 622.734C292.951 614.962 281.743 610.657 267.995 610.651C229.36 610.611 190.72 610.602 152.082 610.602H16.908C8.26136 610.602 1.22314 603.716 1.00534 595.144L1.00012 594.736V424.924C1.00012 416.172 8.12484 409.073 16.91 409.073H152.091C190.734 409.073 229.377 409.063 268.014 409.024L268.013 409.023C281.763 409.016 292.971 404.717 300.745 396.953C308.521 389.19 312.808 378.015 312.824 364.366C312.833 351.894 312.834 339.417 312.834 326.951V326.813C312.834 301.905 312.793 272.929 312.803 248.031C312.787 234.368 308.499 223.183 300.725 215.41C292.951 207.639 281.743 203.333 267.995 203.326C229.36 203.286 190.72 203.278 152.082 203.278H16.908C8.12422 203.277 1.00025 196.171 1.00012 187.411V16.8662C1.00036 8.10579 8.12429 1.00022 16.908 1Z" stroke="url(#paint1_linear_2856_1892)" stroke-opacity="0.1" style="mix-blend-mode:plus-lighter" stroke-width="2"/>
<path d="M16.908 1H294.64C303.424 1.00005 310.547 8.1057 310.547 16.8662V165.282C310.565 171.153 310.364 177.182 312.225 182.997L312.412 183.56C315.242 191.792 318.53 197.246 323.648 200.615C328.755 203.978 335.594 205.203 345.375 205.203C385.93 205.226 426.476 205.238 467.025 205.238H606.558C615.36 205.238 622.515 212 622.515 220.733V390.73H622.51V391.263C622.51 400.013 615.385 407.114 606.601 407.114H467.059C446.782 407.114 426.507 407.117 406.231 407.123L345.399 407.149C335.617 407.149 328.779 408.372 323.671 411.73C318.552 415.096 315.264 420.546 312.434 428.77C310.63 434.004 310.57 439.424 310.571 444.751V447.03C310.571 459.006 310.543 524.788 310.547 536.77V572.607C310.566 578.666 310.351 584.896 312.412 590.884C315.242 599.116 318.53 604.571 323.648 607.94C328.755 611.303 335.594 612.527 345.375 612.527C385.93 612.549 426.476 612.563 467.025 612.563H606.558C615.342 612.563 622.466 619.669 622.466 628.43V628.963H622.47V799.133C622.47 807.895 615.346 815 606.562 815H328.72C319.935 815 312.812 807.895 312.811 799.133V692.808L312.803 655.355C312.787 641.692 308.499 630.505 300.725 622.734C292.951 614.962 281.743 610.657 267.995 610.651C229.36 610.611 190.72 610.602 152.082 610.602H16.908C8.26136 610.602 1.22314 603.716 1.00534 595.144L1.00012 594.736V424.924C1.00012 416.172 8.12484 409.073 16.91 409.073H152.091C190.734 409.073 229.377 409.063 268.014 409.024L268.013 409.023C281.763 409.016 292.971 404.717 300.745 396.953C308.521 389.19 312.808 378.015 312.824 364.366C312.833 351.894 312.834 339.417 312.834 326.951V326.813C312.834 301.905 312.793 272.929 312.803 248.031C312.787 234.368 308.499 223.183 300.725 215.41C292.951 207.639 281.743 203.333 267.995 203.326C229.36 203.286 190.72 203.278 152.082 203.278H16.908C8.12422 203.277 1.00025 196.171 1.00012 187.411V16.8662C1.00036 8.10579 8.12429 1.00022 16.908 1Z" stroke="white" stroke-opacity="0.1" stroke-width="2"/>
<defs>
<radialGradient id="paint0_radial_2856_1892" cx="0" cy="0" r="1" gradientTransform="matrix(1026.7 1089 310.485 1407.14 -386.197 -165.5)" gradientUnits="userSpaceOnUse">
<stop stop-color="white"/>
<stop offset="1" stop-color="white" stop-opacity="0"/>
</radialGradient>
<linearGradient id="paint1_linear_2856_1892" x1="72.2849" y1="128.643" x2="772.439" y2="677.842" gradientUnits="userSpaceOnUse">
<stop stop-color="white"/>
<stop offset="1" stop-color="white" stop-opacity="0"/>
</linearGradient>
</defs>
</svg>
