<svg width="24" height="24" viewBox="0 0 24 24" fill="none" xmlns="http://www.w3.org/2000/svg">
<path d="M12 3C10.2097 3 8.49286 3.71116 7.22699 4.97703C5.96112 6.2429 5.24996 7.95979 5.24996 9.75V13.3515L3.80396 16.9725C3.75867 17.0862 3.7419 17.2093 3.75512 17.331C3.76833 17.4527 3.81113 17.5693 3.87978 17.6706C3.94843 17.772 4.04083 17.855 4.14894 17.9124C4.25704 17.9698 4.37755 17.9999 4.49996 18H8.99996C8.99996 19.662 10.338 21 12 21C13.662 21 15 19.662 15 18H19.5C19.6224 17.9999 19.7429 17.9698 19.851 17.9124C19.9591 17.855 20.0515 17.772 20.1201 17.6706C20.1888 17.5693 20.2316 17.4527 20.2448 17.331C20.258 17.2093 20.2412 17.0862 20.196 16.9725L18.75 13.35V9.75C18.75 7.95979 18.0388 6.2429 16.7729 4.97703C15.5071 3.71116 13.7902 3 12 3ZM13.5 18C13.5 18.834 12.834 19.5 12 19.5C11.166 19.5 10.5 18.834 10.5 18H13.5ZM6.74996 9.75C6.74996 8.35761 7.30308 7.02226 8.28765 6.03769C9.27221 5.05312 10.6076 4.5 12 4.5C13.3923 4.5 14.7277 5.05312 15.7123 6.03769C16.6968 7.02226 17.25 8.35761 17.25 9.75V13.497C17.2502 13.5921 17.2685 13.6863 17.304 13.7745L18.393 16.5H5.60696L6.69596 13.7745C6.73139 13.6863 6.74971 13.5921 6.74996 13.497V9.75Z" fill="white"/>
</svg>
