<svg width="24" height="24" viewBox="0 0 24 24" fill="none" xmlns="http://www.w3.org/2000/svg">
<path d="M8.54 8.54003C8.89 8.89003 8.91 9.42003 8.64 9.83003C8.22356 10.4772 8.00212 11.2305 8.00212 12C8.00212 12.7696 8.22356 13.5229 8.64 14.17C8.91 14.58 8.88 15.12 8.53 15.46C8.1 15.89 7.36 15.86 7.02 15.35C6.35445 14.3596 5.99932 13.1933 6 12C6 10.79 6.36 9.67003 6.97 8.72003C7.33 8.18003 8.08 8.08003 8.54 8.54003ZM15.46 15.46C15.89 15.89 16.63 15.86 16.97 15.35C17.6411 14.3599 17.9998 13.1912 17.9998 11.995C17.9998 10.7989 17.6411 9.6302 16.97 8.64003C16.63 8.14003 15.89 8.10003 15.46 8.53003C15.11 8.88003 15.09 9.41003 15.35 9.82003C15.7724 10.4664 15.9982 11.2214 15.9999 11.9936C16.0017 12.7657 15.7794 13.5217 15.36 14.17C15.09 14.58 15.12 15.12 15.46 15.46ZM12 10C10.9 10 10 10.9 10 12C10 13.1 10.9 14 12 14C13.1 14 14 13.1 14 12C14 10.9 13.1 10 12 10ZM18.32 18.32C18.74 18.74 19.44 18.71 19.82 18.24C21.18 16.53 22 14.36 22 12C22 9.64003 21.18 7.47003 19.82 5.76003C19.45 5.29003 18.75 5.26003 18.32 5.68003C17.96 6.04003 17.92 6.60003 18.24 7.00003C19.34 8.37003 20 10.11 20 12C20 13.89 19.34 15.63 18.24 17C17.92 17.39 17.96 17.96 18.32 18.32ZM5.68 5.68003C5.26 5.26003 4.56 5.29003 4.18 5.76003C2.82 7.47003 2 9.64003 2 12C2 14.36 2.82 16.53 4.18 18.24C4.55 18.71 5.25 18.74 5.68 18.32C6.04 17.96 6.08 17.4 5.76 17C4.66 15.63 4 13.89 4 12C4 10.11 4.66 8.37003 5.76 7.00003C6.08 6.61003 6.04 6.04003 5.68 5.68003Z" fill="white"/>
</svg>
