<svg width="25" height="24" viewBox="0 0 25 24" fill="none" xmlns="http://www.w3.org/2000/svg">
<path d="M21.375 3.15003C21.1171 2.9832 20.8222 2.88227 20.5162 2.85612C20.2102 2.82996 19.9024 2.87938 19.62 3.00003L10.365 6.64502C10.1461 6.73494 9.91164 6.78082 9.675 6.78003H3.75C3.25272 6.78003 2.77581 6.97757 2.42417 7.3292C2.07254 7.68083 1.875 8.15774 1.875 8.65503V8.80502H0V13.305H1.875V13.5C1.88675 13.9895 2.08947 14.4549 2.43983 14.7969C2.7902 15.1388 3.26042 15.3302 3.75 15.33L6 20.1C6.15236 20.4212 6.39222 20.693 6.69204 20.884C6.99187 21.075 7.33949 21.1776 7.695 21.18H8.64C9.13468 21.1761 9.60775 20.9768 9.95614 20.6256C10.3045 20.2744 10.5 19.7997 10.5 19.305V15.51L19.62 19.155C19.8446 19.2433 20.0837 19.289 20.325 19.29C20.6994 19.2831 21.0639 19.1686 21.375 18.96C21.6217 18.7934 21.8252 18.5705 21.9687 18.3097C22.1121 18.0488 22.1914 17.7576 22.2 17.46V4.69503C22.1986 4.3898 22.1228 4.08952 21.979 3.82028C21.8352 3.55103 21.6279 3.32095 21.375 3.15003ZM8.625 8.65503V13.5H3.75V8.65503H8.625ZM8.625 19.305H7.68L5.835 15.33H8.625V19.305ZM11.055 13.725C10.8769 13.6341 10.6912 13.5588 10.5 13.5V8.55002C10.6893 8.51067 10.875 8.45548 11.055 8.38503L20.325 4.69503V17.415L11.055 13.725ZM22.245 9.18002V12.93C22.7423 12.93 23.2192 12.7325 23.5708 12.3809C23.9225 12.0292 24.12 11.5523 24.12 11.055C24.12 10.5577 23.9225 10.0808 23.5708 9.7292C23.2192 9.37757 22.7423 9.18002 22.245 9.18002Z" fill="white"/>
</svg>
