<svg width="24" height="24" viewBox="0 0 24 24" fill="none" xmlns="http://www.w3.org/2000/svg">
<path d="M9.108 11.758L11.392 9.468L9.339 7.408L8.534 8.212C8.44067 8.30533 8.32733 8.35633 8.194 8.365C8.06067 8.37366 7.93833 8.32266 7.827 8.212C7.71633 8.10133 7.661 7.98233 7.661 7.855C7.661 7.72766 7.71633 7.60866 7.827 7.498L8.625 6.7L6.673 4.748L4.383 7.038L9.108 11.758ZM16.942 19.598L19.232 17.308L17.281 15.356L16.477 16.154C16.3797 16.2513 16.265 16.3033 16.133 16.31C16.001 16.3167 15.8797 16.2647 15.769 16.154C15.6583 16.0433 15.6033 15.9253 15.604 15.8C15.6047 15.6747 15.6597 15.5567 15.769 15.446L16.567 14.642L14.527 12.608L12.242 14.892L16.942 19.598ZM15.532 6.752L17.26 8.479L19.006 6.733L17.273 5L15.532 6.752ZM4.809 20C4.577 20 4.38433 19.9233 4.231 19.77C4.07767 19.6167 4.00067 19.424 4 19.192V17.175C4 17.0677 4.01867 16.9673 4.056 16.874C4.09333 16.7807 4.15533 16.6907 4.242 16.604L8.394 12.452L3.646 7.685C3.46533 7.50433 3.375 7.289 3.375 7.039C3.375 6.789 3.46533 6.57333 3.646 6.392L6.027 4.012C6.20767 3.83133 6.423 3.74166 6.673 3.743C6.923 3.74433 7.13833 3.83566 7.319 4.017L12.112 8.784L16.579 4.311C16.689 4.201 16.805 4.12166 16.927 4.073C17.049 4.02433 17.179 4 17.317 4C17.455 4 17.585 4.02433 17.707 4.073C17.829 4.12166 17.9453 4.201 18.056 4.311L19.688 6.008C19.7987 6.118 19.8753 6.234 19.918 6.356C19.9607 6.478 19.9817 6.608 19.981 6.746C19.9803 6.884 19.959 7.01 19.917 7.124C19.875 7.238 19.799 7.35 19.689 7.46L15.259 11.914L19.989 16.681C20.169 16.8617 20.259 17.077 20.259 17.327C20.259 17.577 20.169 17.7923 19.989 17.973L17.608 20.353C17.4273 20.5343 17.212 20.625 16.962 20.625C16.712 20.625 16.4967 20.5347 16.316 20.354L11.548 15.606L7.396 19.758C7.30933 19.8447 7.21933 19.9067 7.126 19.944C7.03267 19.9813 6.93233 20 6.825 20H4.809Z" fill="white"/>
</svg>
