<svg width="151" height="24" viewBox="0 0 151 24" fill="none" xmlns="http://www.w3.org/2000/svg">
<path d="M70.7363 4.64559C71.5823 4.64559 72.2486 4.78928 72.7354 5.07667C73.2074 5.34545 73.5904 5.75559 73.8345 6.25361C74.0856 6.77729 74.2463 7.34255 74.3097 7.92379C74.3841 8.55776 74.4208 9.19589 74.4198 9.83452V17.2772H71.5939V9.58199C71.5939 8.75587 71.4271 8.20315 71.0936 7.92379C70.7432 7.63932 70.3078 7.49171 69.8632 7.50675C69.3823 7.51151 68.9066 7.61013 68.4608 7.79748C67.9889 7.98645 67.5483 8.25097 67.1552 8.58143C66.7772 8.89636 66.4555 9.27777 66.2049 9.70825L65.9846 8.10424H66.595V17.2672H63.7614V4.92429H65.8862L66.4655 7.17592L65.6349 7.20199C66.0775 6.69075 66.5775 6.23637 67.1242 5.8486C67.6543 5.47075 68.233 5.1724 68.8434 4.96239C69.4536 4.751 70.0929 4.64401 70.7363 4.64559Z" fill="white"/>
<path d="M82.515 17.5559C81.401 17.5807 80.3 17.3044 79.3202 16.7539C78.4074 16.2279 77.6587 15.4418 77.1626 14.4883C76.6326 13.4479 76.3667 12.2844 76.39 11.1078C76.367 9.93176 76.6329 8.76911 77.1626 7.72933C77.6575 6.77284 78.4063 5.98376 79.3202 5.45565C80.3 4.90519 81.401 4.6288 82.515 4.65364C83.6446 4.62449 84.7623 4.90088 85.758 5.45565C86.6719 5.98093 87.4212 6.76724 87.9175 7.72132C88.4473 8.76108 88.7133 9.92376 88.6901 11.0998C88.7134 12.2764 88.4475 13.4398 87.9175 14.4802C87.4212 15.4343 86.6719 16.2206 85.758 16.7459C84.7631 17.3035 83.6454 17.5826 82.515 17.5559ZM82.5401 14.7208C82.9805 14.7386 83.4195 14.6583 83.8277 14.4854C84.2358 14.3124 84.6035 14.051 84.9062 13.7183C85.5076 13.05 85.8083 12.1764 85.8083 11.0978C85.8083 10.0191 85.5076 9.14621 84.9062 8.47921C84.2736 7.83773 83.4244 7.4786 82.5401 7.4786C81.6558 7.4786 80.8065 7.83773 80.1739 8.47921C79.5726 9.14755 79.2718 10.0204 79.2718 11.0978C79.2718 12.1751 79.5726 13.0487 80.1739 13.7183C80.4766 14.051 80.8444 14.3124 81.2525 14.4854C81.6606 14.6583 82.0996 14.7386 82.5401 14.7208Z" fill="white"/>
<path d="M95.2942 17.5559C94.2866 17.5748 93.2953 17.2892 92.4412 16.7339C91.6069 16.1737 90.9382 15.3847 90.5097 14.4541C90.0281 13.3993 89.79 12.2427 89.8143 11.0757C89.7887 9.91241 90.0268 8.75927 90.5097 7.70927C90.9406 6.76925 91.6253 5.97933 92.4804 5.43547C93.3356 4.89162 94.3245 4.61722 95.3269 4.64561C96.3019 4.62238 97.2626 4.89031 98.095 5.41754C98.9015 5.95857 99.5385 6.73199 99.928 7.6431C100.388 8.72226 100.613 9.89374 100.587 11.0737C100.612 12.2464 100.387 13.4104 99.928 14.4821C99.5293 15.4045 98.8862 16.1904 98.0737 16.7479C97.2446 17.2965 96.2773 17.5777 95.2942 17.5559ZM95.7829 14.9233C96.2037 14.9365 96.6218 14.8485 97.0043 14.6663C97.387 14.484 97.7239 14.2124 97.9887 13.8727C98.5502 13.1736 98.8308 12.2493 98.8308 11.0997C98.8308 9.95027 98.5502 9.02657 97.9887 8.32882C97.7239 7.98907 97.387 7.71746 97.0043 7.53521C96.6218 7.35295 96.2037 7.26499 95.7829 7.27819C95.3584 7.26641 94.9368 7.35485 94.5499 7.53685C94.1632 7.71885 93.8213 7.98965 93.55 8.32882C92.9718 9.02923 92.6833 9.94481 92.6847 11.0757C92.6859 12.2065 92.9744 13.1341 93.55 13.8587C93.8193 14.2012 94.1604 14.4752 94.5475 14.6597C94.9345 14.8443 95.3571 14.9344 95.7829 14.9233ZM99.391 17.2772L98.7092 14.5684H98.9274V7.9619H98.7092V0.0380859H101.533V17.2812L99.391 17.2772Z" fill="white"/>
<path d="M109.439 17.5299C108.364 17.5539 107.302 17.2768 106.366 16.7279C105.489 16.1971 104.775 15.42 104.305 14.4863C103.791 13.446 103.535 12.2888 103.561 11.1199C103.534 9.93733 103.789 8.76623 104.305 7.71131C104.774 6.77459 105.487 5.99313 106.362 5.45568C107.311 4.92193 108.374 4.64341 109.454 4.64552C110.534 4.64763 111.596 4.93028 112.543 5.46771C113.424 6.01023 114.138 6.80065 114.604 7.7474C115.108 8.78617 115.359 9.93707 115.336 11.0997C115.336 11.2521 115.332 11.4045 115.325 11.5569C115.325 11.7073 115.303 11.8436 115.288 11.9579H106.049V9.608H113.196L112.617 10.9495C112.617 9.78387 112.359 8.83011 111.844 8.08825C111.329 7.3464 110.54 6.9748 109.478 6.97347C108.52 6.97347 107.76 7.28157 107.198 7.89779C106.637 8.51399 106.356 9.32869 106.356 10.3419V11.6832C106.356 12.7299 106.637 13.5607 107.198 14.1755C107.76 14.7904 108.536 15.0984 109.528 15.0997C110.42 15.0997 111.115 14.906 111.612 14.5183C112.118 14.1192 112.551 13.6305 112.893 13.0747L114.917 14.3399C114.433 15.3283 113.689 16.1536 112.771 16.7199C111.867 17.2612 110.756 17.5312 109.439 17.5299Z" fill="white"/>
<path d="M119.584 4.92431L120.29 8.29073V17.2772H117.461V4.92431H119.584ZM119.777 9.68216L119.197 9.40349V7.198L119.418 6.89524C119.632 6.53975 119.892 6.216 120.19 5.93284C120.563 5.56656 120.986 5.25919 121.446 5.02055C121.901 4.77393 122.407 4.644 122.921 4.6416C123.153 4.64041 123.385 4.65717 123.615 4.69173C123.793 4.70959 123.964 4.77072 124.115 4.87017V7.52681H123.342C122.271 7.52681 121.466 7.69992 120.928 8.04612C120.365 8.42756 119.957 9.00949 119.779 9.68216H119.777Z" fill="white"/>
<path d="M133.045 4.6456C133.891 4.6456 134.558 4.7893 135.044 5.07668C135.516 5.34547 135.899 5.7556 136.142 6.25362C136.394 6.7773 136.555 7.34255 136.618 7.92379C136.693 8.55776 136.729 9.1959 136.728 9.83451V17.2772H133.899V9.58198C133.899 8.75587 133.732 8.20316 133.398 7.92379C133.048 7.63934 132.612 7.49172 132.167 7.50675C131.687 7.51152 131.212 7.61015 130.765 7.79748C130.294 7.98646 129.853 8.25098 129.46 8.58144C129.082 8.89638 128.76 9.27778 128.51 9.70824L128.289 8.10424H128.9V17.2672H126.065V4.9243H128.189L128.768 7.17592L127.938 7.20199C128.38 6.69075 128.88 6.23638 129.426 5.8486C129.957 5.47075 130.536 5.1724 131.146 4.96239C131.758 4.75036 132.4 4.64336 133.045 4.6456Z" fill="white"/>
<path d="M144.824 17.5559C143.709 17.5807 142.608 17.3044 141.629 16.7539C140.716 16.2279 139.967 15.4418 139.471 14.4883C138.94 13.4479 138.675 12.2844 138.699 11.1078C138.676 9.93175 138.942 8.76908 139.471 7.72932C139.967 6.77579 140.716 5.9896 141.629 5.46366C142.608 4.91319 143.709 4.6368 144.824 4.66166C145.953 4.63279 147.071 4.90915 148.068 5.46366C148.981 5.9896 149.729 6.77579 150.226 7.72932C150.755 8.76908 151.021 9.93175 150.999 11.1078C151.021 12.2844 150.755 13.4479 150.226 14.4883C149.729 15.4418 148.981 16.2279 148.068 16.7539C147.071 17.3084 145.953 17.5847 144.824 17.5559ZM144.848 14.7208C145.289 14.7386 145.729 14.6583 146.136 14.4854C146.544 14.3124 146.912 14.051 147.214 13.7183C147.814 13.05 148.115 12.1764 148.116 11.0978C148.118 10.0191 147.817 9.1462 147.214 8.47919C146.582 7.83772 145.733 7.47859 144.848 7.47859C143.965 7.47859 143.115 7.83772 142.483 8.47919C141.883 9.14754 141.581 10.0204 141.581 11.0978C141.58 12.1751 141.88 13.0494 142.483 13.7203C142.785 14.0526 143.154 14.3138 143.561 14.4863C143.969 14.6588 144.408 14.7388 144.848 14.7208Z" fill="white"/>
<path d="M48.1045 0V8.83596C48.1045 11.3215 46.327 13.3432 44.143 13.3432H40.1395C39.637 13.3469 39.1428 13.4752 38.6989 13.7172C38.2551 13.9591 37.8748 14.3076 37.5906 14.7329C36.8474 15.8253 36.5126 17.2837 36.5126 19.3244V23.9897H15.6873L21.6991 9.24305H15.6354C15.1707 9.24344 14.7077 9.30112 14.2563 9.4148C11.9733 10.0075 10.6813 11.4984 10.2981 13.9823C10.254 14.2847 10.2328 14.5903 10.2345 14.8961V24H0V15.1537C0 12.6648 1.77743 10.6431 3.96156 10.6431H7.96503C8.46733 10.6404 8.9616 10.5131 9.4055 10.2716C9.84953 10.0301 10.2298 9.682 10.5139 9.2568C11.2538 8.16433 11.5985 6.70599 11.5985 4.66533V0H25.4665L32.2499 14.7432H32.459C32.9257 14.7455 33.3907 14.6877 33.8432 14.5715C36.1345 13.9805 37.4298 12.4896 37.8064 10.0057C37.8487 9.70307 37.87 9.39773 37.87 9.09189V0H48.1045Z" fill="white"/>
</svg>
