<svg width="807" height="393" viewBox="0 0 807 393" fill="none" xmlns="http://www.w3.org/2000/svg">
<g clip-path="url(#clip0_2823_1722)">
<path d="M806.9 0.0300293V144.41C806.9 185.02 777.08 218.08 740.44 218.08H673.3C664.87 218.135 656.579 220.228 649.134 224.181C641.688 228.134 635.309 233.829 630.54 240.78C618.12 258.63 612.34 282.48 612.34 315.78V392.03H263.13L363.98 151.03H262.27C254.479 151.031 246.716 151.971 239.15 153.83C200.85 163.5 179.15 187.83 172.75 228.47C171.998 233.407 171.634 238.396 171.66 243.39V392.03H0V247.65C0 206.98 29.82 173.93 66.46 173.93H133.6C142.027 173.892 150.32 171.812 157.767 167.867C165.214 163.922 171.594 158.231 176.36 151.28C188.78 133.43 194.56 109.58 194.56 76.28V0.0300293H427.18L540.97 240.95H544.45C552.28 240.996 560.086 240.076 567.69 238.21C606.09 228.54 627.84 204.21 634.14 163.57C634.867 158.63 635.231 153.643 635.23 148.65V0.0300293H806.9Z" fill="white"/>
</g>
<defs>
<clipPath id="clip0_2823_1722">
<rect width="806.89" height="392.06" fill="white"/>
</clipPath>
</defs>
</svg>
