<svg width="1282" height="257" viewBox="0 0 1282 257" fill="none" xmlns="http://www.w3.org/2000/svg">
<path d="M102.421 67.3963C114.844 67.3963 124.629 69.4981 131.777 73.7019C138.707 77.6336 144.331 83.6329 147.916 90.9178C151.602 98.5781 153.964 106.846 154.893 115.349C155.986 124.622 156.526 133.957 156.51 143.299V252.167H115.014V139.603C115.014 127.52 112.565 119.435 107.668 115.349C102.523 111.188 96.1283 109.028 89.6003 109.248C82.5392 109.318 75.5537 110.761 69.0084 113.501C62.0775 116.265 55.6078 120.135 49.8346 124.968C44.2853 129.575 39.562 135.154 35.8798 141.451L32.6463 117.988H41.6092V252.02H0V71.4729H31.1999L39.7089 104.409L27.5125 104.79C34.0112 97.312 41.353 90.6657 49.3808 84.9934C57.1638 79.4662 65.6621 75.1021 74.6244 72.0302C83.5857 68.9381 92.9735 67.3731 102.421 67.3963Z" fill="white"/>
<path d="M275.381 256.241C259.024 256.604 242.857 252.561 228.468 244.509C215.064 236.816 204.07 225.316 196.786 211.368C189.003 196.149 185.099 179.131 185.44 161.92C185.102 144.718 189.007 127.71 196.786 112.501C204.053 98.5095 215.048 86.967 228.468 79.242C242.857 71.1899 259.024 67.147 275.381 67.5105C291.97 67.0841 308.382 71.127 323.003 79.242C336.421 86.9256 347.427 98.4275 354.714 112.383C362.493 127.593 366.397 144.6 366.059 161.802C366.401 179.014 362.496 196.032 354.714 211.25C347.427 225.206 336.421 236.708 323.003 244.392C308.393 252.548 291.981 256.631 275.381 256.241ZM275.75 214.77C282.218 215.029 288.664 213.855 294.657 211.325C300.65 208.796 306.05 204.971 310.495 200.105C319.326 190.329 323.741 177.552 323.741 161.773C323.741 145.994 319.326 133.226 310.495 123.47C301.206 114.086 288.736 108.833 275.75 108.833C262.764 108.833 250.293 114.086 241.004 123.47C232.174 133.246 227.759 146.014 227.759 161.773C227.759 177.532 232.174 190.31 241.004 200.105C245.45 204.971 250.85 208.796 256.843 211.325C262.835 213.855 269.282 215.029 275.75 214.77Z" fill="white"/>
<path d="M463.034 256.244C448.238 256.52 433.683 252.343 421.141 244.22C408.889 236.027 399.071 224.485 392.778 210.873C385.706 195.445 382.21 178.524 382.567 161.454C382.189 144.439 385.687 127.571 392.778 112.211C399.106 98.461 409.159 86.9064 421.716 78.951C434.274 70.9957 448.795 66.9819 463.516 67.3973C477.831 67.0575 491.939 70.9768 504.161 78.6888C516.005 86.6027 525.359 97.9161 531.078 111.244C537.84 127.029 541.143 144.165 540.75 161.425C541.127 178.579 537.824 195.607 531.078 211.284C525.223 224.776 515.78 236.27 503.849 244.425C491.674 252.452 477.47 256.565 463.034 256.244ZM470.21 217.736C476.389 217.929 482.528 216.642 488.147 213.976C493.766 211.31 498.713 207.338 502.601 202.368C510.846 192.142 514.968 178.621 514.968 161.806C514.968 144.991 510.846 131.48 502.601 121.274C498.713 116.304 493.766 112.331 488.147 109.665C482.528 106.999 476.389 105.713 470.21 105.906C463.976 105.733 457.786 107.027 452.106 109.689C446.426 112.351 441.405 116.313 437.422 121.274C428.932 131.519 424.696 144.913 424.715 161.454C424.734 177.996 428.97 191.565 437.422 202.162C441.376 207.173 446.386 211.181 452.07 213.881C457.753 216.58 463.958 217.899 470.21 217.736ZM523.193 252.168L513.181 212.545H516.386V115.907H513.181V0H554.648V252.226L523.193 252.168Z" fill="white"/>
<path d="M670.74 255.859C654.952 256.209 639.364 252.157 625.614 244.127C612.741 236.362 602.251 224.996 595.35 211.338C587.799 196.12 584.046 179.194 584.43 162.095C584.029 144.798 587.781 127.667 595.35 112.236C602.238 98.5341 612.703 87.1032 625.557 79.2415C639.497 71.4341 655.106 67.3601 670.96 67.3908C686.814 67.4215 702.408 71.5561 716.32 79.4174C729.252 87.3533 739.745 98.9154 746.584 112.764C753.981 127.959 757.672 144.794 757.334 161.802C757.334 164.031 757.277 166.26 757.164 168.489C757.164 170.688 756.852 172.683 756.625 174.354H620.962V139.981H725.907L717.398 159.602C717.398 142.552 713.616 128.602 706.053 117.75C698.489 106.898 686.907 101.463 671.307 101.443C657.239 101.443 646.083 105.95 637.838 114.964C629.594 123.977 625.472 135.895 625.472 150.715V170.336C625.472 185.646 629.594 197.798 637.838 206.792C646.083 215.786 657.485 220.293 672.045 220.312C685.149 220.312 695.35 217.477 702.649 211.807C710.071 205.968 716.437 198.82 721.454 190.69L751.179 209.197C744.078 223.655 733.149 235.728 719.667 244.01C706.393 251.929 690.084 255.878 670.74 255.859Z" fill="white"/>
<path d="M819.706 71.4741L830.087 120.717V252.168H788.534V71.4741H819.706ZM822.542 141.071L814.033 136.994V104.733L817.266 100.304C820.417 95.1041 824.233 90.3685 828.612 86.2264C834.092 80.8687 840.304 76.3725 847.048 72.8819C853.741 69.2744 861.17 67.3738 868.718 67.3388C872.125 67.3214 875.528 67.5665 878.9 68.072C881.513 68.3331 884.03 69.2274 886.246 70.6822V109.543H874.901C859.169 109.543 847.35 112.075 839.447 117.139C831.184 122.718 825.182 131.231 822.57 141.071H822.542Z" fill="white"/>
<path d="M1017.37 67.3965C1029.79 67.3965 1039.58 69.4984 1046.73 73.7021C1053.66 77.6339 1059.28 83.6332 1062.87 90.9181C1066.55 98.5783 1068.91 106.847 1069.84 115.349C1070.94 124.622 1071.48 133.957 1071.46 143.299V252.167H1029.91V139.604C1029.91 127.52 1027.46 119.435 1022.56 115.349C1017.42 111.188 1011.02 109.029 1004.49 109.248C997.432 109.318 990.447 110.761 983.901 113.501C976.971 116.265 970.501 120.135 964.728 124.969C959.178 129.575 954.455 135.154 950.773 141.451L947.539 117.988H956.502V252.02H914.865V71.4732H946.064L954.574 104.409L942.377 104.791C948.876 97.3122 956.218 90.6659 964.245 84.9937C972.028 79.4665 980.527 75.1024 989.489 72.0304C998.477 68.9289 1007.89 67.3638 1017.37 67.3965Z" fill="white"/>
<path d="M1190.33 256.242C1173.97 256.606 1157.81 252.563 1143.42 244.511C1130.01 236.817 1119.02 225.317 1111.74 211.369C1103.95 196.151 1100.05 179.133 1100.39 161.921C1100.05 144.719 1103.96 127.712 1111.74 112.502C1119.02 98.5545 1130.01 87.0544 1143.42 79.361C1157.81 71.309 1173.97 67.2661 1190.33 67.6296C1206.93 67.2075 1223.35 71.2499 1237.98 79.361C1251.38 87.0544 1262.38 98.5545 1269.66 112.502C1277.44 127.712 1281.35 144.719 1281.01 161.921C1281.35 179.133 1277.45 196.151 1269.66 211.369C1262.38 225.317 1251.38 236.817 1237.98 244.511C1223.35 252.622 1206.93 256.664 1190.33 256.242ZM1190.7 214.771C1197.17 215.031 1203.61 213.856 1209.61 211.327C1215.6 208.798 1221 204.972 1225.44 200.107C1234.26 190.331 1238.67 177.553 1238.69 161.775C1238.71 145.996 1234.29 133.228 1225.44 123.471C1216.16 114.088 1203.69 108.835 1190.7 108.835C1177.71 108.835 1165.24 114.088 1155.95 123.471C1147.14 133.248 1142.73 146.015 1142.71 161.775C1142.69 177.534 1147.1 190.321 1155.95 200.136C1160.4 204.996 1165.8 208.816 1171.8 211.34C1177.79 213.865 1184.23 215.034 1190.7 214.771Z" fill="white"/>
</svg>
